<?xml version="1.0" encoding="utf-8"?>
<!-- Generator: Adobe Illustrator 23.0.3, SVG Export Plug-In . SVG Version: 6.00 Build 0)  -->
<svg version="1.1" id="Layer_1" xmlns="http://www.w3.org/2000/svg" xmlns:xlink="http://www.w3.org/1999/xlink" x="0px" y="0px"
	 viewBox="0 0 108.9 108.6" style="enable-background:new 0 0 108.9 108.6;" xml:space="preserve">
<style type="text/css">
	.st0{fill:#2D2D2D;}
</style>
<g>
	<path class="st0" d="M54.6,73.9c1.1-1.5,2-2.9,3-4c1.2-1.3,1.2-2.5,0.6-4c-1.8-4.4-0.5-3.7-5.2-3.7c-2.7,0-5.5,0-8.2,0
		c-1.2,0-1.8,0.5-2.3,1.6c-1.7,3-1.4,5.5,1.5,7.6c0.8,0.6,1.4,1.5,2.4,2.6c-4.2,0-8.1,0-12.4,0c1-1.2,2-2.2,2.7-3.3
		c1.2-1.7,2.4-3.4,3.2-5.4c2.8-7,5.4-14.2,8.2-21.2c0.7-1.9,0.8-3.4-0.4-5.1c-0.8-1.1-1.4-2.4-2.3-4.1c2.8,0,5.1,0,7.4,0
		c5.4,0,5.4,0,7.3,5c3.1,8.2,6.2,16.4,9.5,24.6c1.1,2.6,2.8,5,4.2,7.5c0.4,0.6,0.9,1.2,1.5,2.1C68.2,73.9,61.6,73.9,54.6,73.9z
		 M56.1,60.3c-2-5.6-3.9-11-6.1-16.9c-2.2,5.9-4.2,11.3-6.3,16.9C48,60.3,51.9,60.3,56.1,60.3z"/>
	<g>
		<path class="st0" d="M24.1,9l0.8-0.5l6.1,4.4l-0.8,0.5l-1.7-1.2l-2.5,1.7l0.5,2l-0.8,0.5L24.1,9z M27.9,11.7l-2.2-1.6l-0.7-0.5
			l0,0l0.2,0.8l0.6,2.6L27.9,11.7z"/>
		<path class="st0" d="M28.6,6.3L29.3,6l2.8,5.6l2.8-1.4l0.4,0.7l-3.5,1.8L28.6,6.3z"/>
		<path class="st0" d="M34.5,4.5l-1.8,0.7l-0.3-0.7l4.5-1.8l0.3,0.7l-1.8,0.7l2.3,5.8l-0.8,0.3L34.5,4.5z"/>
		<path class="st0" d="M39.7,1.8l0.9-0.2l4.4,6.1l-0.9,0.2L43,6.2L40,7l-0.2,2.1L39,9.3L39.7,1.8z M42.5,5.6l-1.6-2.2l-0.5-0.7l0,0
			l-0.1,0.8l-0.2,2.7L42.5,5.6z"/>
		<path class="st0" d="M44.6,0.7l0.8-0.1l1.2,6.9l-0.8,0.1L44.6,0.7z"/>
		<path class="st0" d="M47.4,0.2L49.8,0c0.4,0,0.8,0,1.1,0.2c0.3,0.1,0.6,0.4,0.9,0.7c0.2,0.3,0.4,0.6,0.4,1c0,0.3,0,0.6-0.1,0.9
			c-0.1,0.3-0.3,0.5-0.5,0.8C51.3,3.8,51,4,50.7,4l0,0l2.2,2.7l0,0l-1,0.1l-2.2-2.7l-1.1,0.1l0.3,2.9l-0.8,0.1L47.4,0.2z M50.1,3.4
			c0.2,0,0.5-0.1,0.7-0.2c0.2-0.1,0.4-0.3,0.5-0.5c0.1-0.2,0.2-0.4,0.1-0.7c0-0.2-0.1-0.4-0.2-0.6C51,1.2,50.8,1,50.6,0.9
			c-0.2-0.1-0.4-0.1-0.7-0.1l-1.6,0.1l0.2,2.6L50.1,3.4z"/>
		<path class="st0" d="M53.4,7.7l0.5-0.8c-0.1,0-0.2-0.1-0.3-0.2c-0.1-0.1-0.1-0.2-0.1-0.4c0-0.2,0.1-0.3,0.2-0.4s0.3-0.2,0.4-0.2
			c0.2,0,0.3,0.1,0.5,0.2c0.1,0.1,0.2,0.3,0.2,0.4c0,0.1,0,0.2-0.1,0.3c0,0.1-0.1,0.2-0.2,0.4l-0.6,1L53.4,7.7z"/>
		<path class="st0" d="M63.2,0.5l0.9,0.2l1.4,7.4l-0.9-0.2l-0.4-2l-3-0.5l-1,1.8L59.4,7L63.2,0.5z M64.2,5.1l-0.5-2.7l-0.2-0.8l0,0
			l-0.4,0.7l-1.4,2.3L64.2,5.1z"/>
		<path class="st0" d="M68.4,1.6l1,0.3l1.7,6.4l0,0L71.5,7L72.8,3l0.8,0.3l-2.1,6.7l-0.8-0.3l-1.7-6.7l0,0l-0.4,1.3l-1.4,4.3
			l-0.8-0.3L68.4,1.6z"/>
		<path class="st0" d="M80.2,6.3l3.5,2.1L83.3,9l-2.8-1.6l-1.2,2l2.5,1.5l-0.4,0.7L79,10.1l-1.2,2l2.8,1.6l-0.4,0.7l-3.5-2.1
			L80.2,6.3z"/>
		<path class="st0" d="M85.3,9.4L86,9.9l-3.7,5l2.5,1.8l-0.5,0.6l-3.2-2.3L85.3,9.4z"/>
		<path class="st0" d="M89.8,12.8l3,2.8l-0.5,0.6L89.8,14l-1.6,1.7l2.2,2l-0.5,0.6l-2.2-2L86.2,18l2.4,2.2L88,20.8L85,18L89.8,12.8z
			"/>
		<path class="st0" d="M89.9,22.3c-0.1-0.6-0.1-1.3,0.2-1.9c0.2-0.6,0.6-1.1,1.1-1.6s1.1-0.7,1.8-0.8s1.3-0.1,1.9,0.2
			c0.6,0.2,1.1,0.6,1.5,1.1c0.3,0.4,0.6,0.8,0.7,1.3c0.2,0.5,0.2,0.9,0.1,1.4l-0.8-0.1c0.1-0.3,0-0.7-0.1-1.1
			c-0.1-0.4-0.3-0.7-0.5-1c-0.3-0.4-0.7-0.7-1.2-0.8c-0.5-0.2-0.9-0.2-1.4-0.1c-0.5,0.1-1,0.3-1.4,0.7c-0.4,0.4-0.7,0.8-0.9,1.3
			c-0.2,0.5-0.2,1-0.1,1.4c0.1,0.5,0.3,0.9,0.6,1.3c0.3,0.4,0.6,0.6,0.9,0.8c0.3,0.1,0.6,0.2,1,0.3c0.3,0,0.5,0,0.8-0.1
			c0.3-0.1,0.5-0.2,0.8-0.4l-1.7-2l0.6-0.5l2.2,2.6c-0.1,0.1-0.2,0.3-0.4,0.4c-0.3,0.3-0.7,0.5-1.1,0.7c-0.4,0.2-0.8,0.2-1.3,0.2
			c-1,0-1.8-0.5-2.5-1.3C90.3,23.5,90,23,89.9,22.3z"/>
		<path class="st0" d="M100.6,25.4l0.5,0.8l-4.6,6L96,31.4l1.3-1.6l-1.6-2.6l-2,0.4l-0.5-0.8L100.6,25.4z M97.8,29.1l1.7-2.1
			l0.5-0.6l0,0l-0.8,0.2L96.5,27L97.8,29.1z"/>
		<path class="st0" d="M103.2,30l0.4,0.9l-3.7,5.5l0,0l1.2-0.6l3.9-1.7l0.3,0.8l-6.5,2.8L98.6,37l3.9-5.7l0,0l-1.2,0.6l-4.1,1.8
			l-0.3-0.8L103.2,30z"/>
		<path class="st0" d="M105.7,38.7l-0.6-1.9l0.8-0.2l1.3,4.6l-0.8,0.2l-0.6-1.9l-6,1.8l-0.2-0.8L105.7,38.7z"/>
		<path class="st0" d="M101.9,49.6c0.3-0.6,0.7-1,1.2-1.4c0.5-0.4,1.2-0.6,1.8-0.6c0.7,0,1.3,0.1,1.9,0.4c0.6,0.3,1.1,0.7,1.4,1.2
			c0.4,0.5,0.6,1.1,0.6,1.8c0,0.5,0,1-0.2,1.5c-0.2,0.4-0.4,0.8-0.8,1.2l-0.6-0.6c0.3-0.3,0.5-0.6,0.6-0.9c0.1-0.3,0.2-0.7,0.2-1.1
			c0-0.5-0.2-1-0.5-1.4c-0.3-0.4-0.6-0.7-1.1-1c-0.5-0.2-1-0.3-1.5-0.3c-0.6,0-1.1,0.2-1.5,0.5c-0.4,0.3-0.7,0.6-0.9,1.1
			c-0.2,0.4-0.3,0.9-0.3,1.4c0.1,0.9,0.5,1.6,1.2,2.1l-0.5,0.6c-0.4-0.3-0.7-0.7-1-1.1s-0.4-1-0.4-1.6
			C101.5,50.8,101.6,50.1,101.9,49.6z"/>
		<path class="st0" d="M101.9,56.3c0.3-0.4,0.6-0.7,1-0.8c0.4-0.2,0.9-0.3,1.5-0.2l4.4,0.3l-0.1,0.8l-4.5-0.3c-0.6,0-1,0.1-1.4,0.4
			c-0.4,0.3-0.6,0.7-0.6,1.3c0,0.6,0.1,1,0.4,1.3s0.8,0.5,1.4,0.6l4.5,0.3l-0.1,0.8l-4.4-0.3c-0.5,0-1-0.2-1.4-0.4
			c-0.4-0.2-0.7-0.6-0.9-1c-0.2-0.4-0.3-0.9-0.2-1.4C101.5,57.1,101.7,56.7,101.9,56.3z"/>
		<path class="st0" d="M101.5,61.9c0.4-0.4,0.9-0.6,1.6-0.7l0.2,0.8c-0.4,0-0.8,0.2-1.1,0.4c-0.3,0.2-0.5,0.6-0.6,1
			c-0.1,0.4,0,0.8,0.1,1.1c0.2,0.3,0.4,0.5,0.8,0.6c0.3,0.1,0.6,0,0.9-0.2c0.3-0.2,0.5-0.5,0.8-1l0.2-0.4c0.3-0.5,0.6-0.8,0.9-1.1
			c0.3-0.3,0.8-0.3,1.3-0.2c0.3,0.1,0.6,0.2,0.9,0.4c0.2,0.2,0.4,0.5,0.5,0.9c0.1,0.4,0.1,0.7,0,1.1c-0.1,0.4-0.2,0.7-0.4,1
			s-0.4,0.5-0.7,0.6c-0.2,0.1-0.5,0.2-0.7,0.2l-0.2-0.8c0.3,0,0.5-0.1,0.7-0.3c0.2-0.2,0.4-0.5,0.5-0.8c0.1-0.4,0-0.7-0.1-1
			c-0.2-0.3-0.4-0.5-0.7-0.5c-0.3-0.1-0.5,0-0.7,0.2c-0.2,0.2-0.4,0.5-0.7,0.9l-0.2,0.4c-0.3,0.5-0.7,1-1.1,1.2
			c-0.4,0.3-0.8,0.3-1.4,0.2c-0.4-0.1-0.8-0.3-1.1-0.6c-0.3-0.3-0.4-0.6-0.5-1c-0.1-0.4-0.1-0.7,0-1.1
			C100.8,62.8,101.1,62.3,101.5,61.9z"/>
		<path class="st0" d="M105.7,69.8l0.6-1.9l0.8,0.2l-1.4,4.6l-0.8-0.2l0.6-1.9l-6-1.9l0.2-0.8L105.7,69.8z"/>
		<path class="st0" d="M98.5,72.5c0.5-0.4,1.1-0.6,1.8-0.6s1.3,0.1,1.9,0.4c0.6,0.3,1.1,0.7,1.5,1.2c0.4,0.5,0.6,1.1,0.7,1.7
			c0.1,0.6,0,1.3-0.3,1.9c-0.3,0.6-0.7,1.1-1.2,1.5c-0.5,0.4-1.1,0.6-1.8,0.6c-0.6,0.1-1.3-0.1-1.9-0.3c-0.6-0.3-1.1-0.7-1.5-1.2
			s-0.6-1.1-0.7-1.7c-0.1-0.6,0-1.3,0.3-1.9C97.5,73.4,97.9,72.9,98.5,72.5z M97.7,75.8c0,0.5,0.2,0.9,0.5,1.3
			c0.3,0.4,0.7,0.7,1.2,1c0.5,0.2,1,0.3,1.5,0.3s1-0.2,1.4-0.5c0.4-0.3,0.7-0.7,0.9-1.1c0.2-0.5,0.3-0.9,0.2-1.4
			c0-0.5-0.2-0.9-0.5-1.3c-0.3-0.4-0.7-0.7-1.2-1c-0.5-0.2-1-0.3-1.5-0.3c-0.5,0-1,0.2-1.4,0.5c-0.4,0.3-0.7,0.6-0.9,1.1
			C97.8,74.8,97.7,75.3,97.7,75.8z"/>
		<path class="st0" d="M101.2,82.2l-0.7,1l-6-1.4l0,0l3.5,5.1l-0.7,1l-5.8-4l0.5-0.7l3.7,2.5l1.1,0.8l0,0l-3.5-5.2l0.4-0.6l6.1,1.4
			l0,0l-1.1-0.7l-3.7-2.5l0.5-0.7L101.2,82.2z"/>
		<path class="st0" d="M95.8,89.5l-0.5,0.6l-5.3-4.6l0.5-0.6L95.8,89.5z"/>
		<path class="st0" d="M89.9,87l1,6.5l2.6-2.5l0.6,0.6l-3.3,3.2l-0.6-0.6l-1-6.5l-2.7,2.7l-0.6-0.6l3.4-3.4L89.9,87z"/>
		<path class="st0" d="M87.7,97.2l-0.8,0.6l-6.4-4l0.7-0.6l1.7,1.1l2.4-1.8l-0.6-2l0.7-0.6L87.7,97.2z M83.7,94.8l2.3,1.5l0.7,0.4
			l0,0l-0.2-0.8l-0.8-2.6L83.7,94.8z"/>
		<path class="st0" d="M83.4,100.3l-2.2,1.3c-0.3,0.2-0.6,0.3-1,0.3c-0.4,0-0.7-0.1-1-0.2c-0.3-0.2-0.5-0.4-0.7-0.7
			c-0.2-0.3-0.2-0.6-0.2-0.9s0.1-0.6,0.3-0.9l0,0c-0.4,0.1-0.7,0-1.1-0.1c-0.3-0.1-0.6-0.4-0.8-0.7c-0.2-0.3-0.3-0.7-0.3-1
			c0-0.4,0.1-0.7,0.3-1c0.2-0.3,0.5-0.6,0.8-0.7l2.3-1.3L83.4,100.3z M77.9,96.2c-0.2,0.1-0.4,0.3-0.5,0.5c-0.1,0.2-0.2,0.4-0.1,0.6
			s0.1,0.4,0.2,0.6c0.1,0.2,0.2,0.3,0.4,0.4c0.2,0.1,0.4,0.2,0.6,0.2c0.2,0,0.4-0.1,0.7-0.2l1.6-0.9l-1.2-2.1L77.9,96.2z M79.7,98.9
			c-0.2,0.1-0.4,0.3-0.5,0.5c-0.1,0.2-0.2,0.4-0.1,0.6c0,0.2,0,0.4,0.1,0.5c0.1,0.2,0.2,0.3,0.4,0.4c0.2,0.1,0.4,0.2,0.6,0.2
			c0.2,0,0.4,0,0.6-0.2l1.5-0.9l-1.1-2L79.7,98.9z"/>
		<path class="st0" d="M77.6,103.4l-0.8,0.3L74.4,98l-2.8,1.2l-0.3-0.7l3.6-1.6L77.6,103.4z"/>
		<path class="st0" d="M72.5,105.5l-3.9,1.2l-0.2-0.8l3.1-1l-0.7-2.2l-2.8,0.9l-0.2-0.8l2.8-0.9l-0.7-2.2l-3.1,1l-0.2-0.8l3.9-1.2
			L72.5,105.5z"/>
		<path class="st0" d="M59.9,108.3l-0.9,0.1l-3.3-6.8l0.9-0.1l0.9,1.9l3-0.3l0.5-2L62,101L59.9,108.3z M57.8,104.1l1.2,2.4l0.4,0.7
			l0,0l0.2-0.8l0.7-2.6L57.8,104.1z"/>
		<path class="st0" d="M54.7,108.6l-1,0l-3.3-5.8l0,0l0,1.4l-0.2,4.3l-0.8,0l0.3-7l0.9,0l3.4,6l0,0l0-1.4l0.2-4.5l0.8,0L54.7,108.6z
			"/>
		<path class="st0" d="M46.9,108.1l-2.1-0.4c-0.7-0.1-1.3-0.4-1.8-0.8c-0.5-0.4-0.8-0.9-1-1.5c-0.2-0.6-0.2-1.2-0.1-1.9
			c0.1-0.7,0.4-1.3,0.8-1.7c0.4-0.5,0.9-0.8,1.5-1c0.6-0.2,1.2-0.2,1.9-0.1l2.1,0.4L46.9,108.1z M46,101.6c-0.8-0.2-1.5,0-2.1,0.3
			c-0.6,0.4-0.9,1-1.1,1.8c-0.2,0.8,0,1.5,0.3,2.1c0.4,0.6,1,0.9,1.8,1.1l1.3,0.2l1-5.4L46,101.6z"/>
		<path class="st0" d="M34.6,104.9l-0.8-0.3l1.3-2.8l-3.3-1.5l-1.3,2.8l-0.8-0.3l2.9-6.4l0.8,0.3l-1.3,2.9l3.3,1.5l1.3-2.9l0.8,0.3
			L34.6,104.9z"/>
		<path class="st0" d="M26,100.6l-0.8-0.5l1.5-7.4l0.8,0.5l-0.4,2l2.6,1.6l1.6-1.3L32,96L26,100.6z M26.9,96l-0.6,2.7l-0.2,0.8l0,0
			l0.6-0.5l2.1-1.7L26.9,96z"/>
		<path class="st0" d="M25.6,92.1c0.1,0.5,0.1,1.1-0.2,1.7l-0.8-0.3c0.2-0.4,0.2-0.8,0.2-1.2c-0.1-0.4-0.3-0.7-0.6-1
			c-0.3-0.3-0.7-0.4-1-0.4c-0.4,0-0.7,0.1-0.9,0.4c-0.2,0.3-0.3,0.5-0.2,0.9c0.1,0.3,0.2,0.7,0.5,1.2l0.2,0.4
			c0.3,0.5,0.4,0.9,0.5,1.3c0.1,0.4-0.1,0.8-0.4,1.2c-0.2,0.3-0.5,0.4-0.8,0.5c-0.3,0.1-0.7,0.1-1,0c-0.4-0.1-0.7-0.2-1-0.5
			c-0.3-0.3-0.5-0.5-0.7-0.8c-0.1-0.3-0.2-0.6-0.2-0.9c0-0.3,0-0.5,0.1-0.7l0.8,0.2c-0.1,0.2-0.1,0.5-0.1,0.8
			c0.1,0.3,0.2,0.6,0.5,0.8c0.3,0.2,0.6,0.3,0.9,0.3c0.3,0,0.6-0.1,0.8-0.4c0.2-0.2,0.2-0.5,0.2-0.7c-0.1-0.3-0.2-0.6-0.5-1
			l-0.3-0.4c-0.3-0.5-0.5-1-0.6-1.5c-0.1-0.5,0.1-0.9,0.4-1.3c0.3-0.4,0.6-0.6,1-0.7c0.4-0.1,0.7-0.1,1.1,0c0.4,0.1,0.7,0.3,1,0.5
			C25.1,91.2,25.4,91.6,25.6,92.1z"/>
		<path class="st0" d="M14.2,90.8l-0.6-0.7l2.9-4.6l0.4-0.6l0,0l-0.7,0.3L11,87l-0.6-0.7l7.1-2.5l0.5,0.7L14.2,90.8z"/>
		<path class="st0" d="M9.7,85.1l-0.5-0.7l5.8-4l0.5,0.7L9.7,85.1z"/>
		<path class="st0" d="M8.5,83.4L8,82.6l3.6-4l0.5-0.5l0,0l-0.7,0.1L6,79l-0.5-0.8L13,77l0.4,0.8L8.5,83.4z"/>
		<path class="st0" d="M5,76.9l-0.3-0.8l6.4-2.9l0.3,0.8L5,76.9z"/>
		<path class="st0" d="M3.8,74.3l-0.7-2c-0.2-0.7-0.3-1.3-0.2-1.9c0.1-0.6,0.4-1.1,0.8-1.6c0.4-0.4,0.9-0.8,1.6-1
			c0.7-0.2,1.3-0.3,1.9-0.2s1.1,0.4,1.6,0.8s0.8,1,1,1.6l0.7,2L3.8,74.3z M9.1,70.2c-0.3-0.8-0.7-1.3-1.3-1.6
			c-0.6-0.3-1.3-0.3-2.1,0c-0.8,0.3-1.4,0.7-1.7,1.3c-0.3,0.6-0.3,1.3,0,2.1l0.4,1.2l5.2-1.8L9.1,70.2z"/>
		<path class="st0" d="M7.1,60.1c-0.3,0.6-0.7,1.1-1.2,1.4c-0.5,0.4-1.1,0.6-1.8,0.6c-0.7,0.1-1.3,0-1.9-0.3
			c-0.6-0.3-1.1-0.7-1.4-1.2s-0.6-1.1-0.7-1.8c0-0.5,0-1,0.2-1.5c0.2-0.5,0.4-0.9,0.7-1.2l0.6,0.5C1.4,57,1.1,57.3,1,57.7
			c-0.1,0.3-0.2,0.7-0.1,1.1c0,0.5,0.2,1,0.5,1.4c0.3,0.4,0.6,0.7,1.1,0.9c0.5,0.2,1,0.3,1.5,0.2c0.6-0.1,1.1-0.2,1.5-0.5
			c0.4-0.3,0.7-0.7,0.9-1.1c0.2-0.4,0.3-0.9,0.2-1.4c-0.1-0.9-0.5-1.5-1.3-2.1l0.5-0.7c0.4,0.3,0.8,0.7,1,1.1s0.4,1,0.5,1.5
			C7.5,58.9,7.4,59.5,7.1,60.1z"/>
		<path class="st0" d="M6.8,53.2c-0.4,0.5-0.8,0.9-1.4,1.2c-0.6,0.3-1.2,0.4-1.9,0.4c-0.7,0-1.3-0.2-1.8-0.6c-0.5-0.3-1-0.8-1.3-1.4
			C0.1,52.2,0,51.6,0,50.9c0-0.7,0.2-1.3,0.6-1.8C1,48.6,1.4,48.2,2,47.9c0.6-0.3,1.2-0.4,1.9-0.4c0.7,0,1.3,0.2,1.8,0.6
			c0.5,0.3,1,0.8,1.3,1.4c0.3,0.6,0.4,1.2,0.4,1.9C7.3,52,7.1,52.6,6.8,53.2z M6.3,49.9c-0.2-0.4-0.5-0.8-1-1.1
			c-0.4-0.3-0.9-0.4-1.5-0.5c-0.6,0-1.1,0.1-1.5,0.3c-0.5,0.2-0.8,0.5-1.1,0.9C1,50,0.8,50.5,0.8,51c0,0.5,0.1,1,0.3,1.4
			c0.2,0.4,0.5,0.8,1,1.1c0.4,0.3,0.9,0.4,1.5,0.5c0.6,0,1.1-0.1,1.5-0.3c0.5-0.2,0.8-0.5,1.1-0.9c0.3-0.4,0.4-0.9,0.5-1.4
			C6.6,50.8,6.5,50.3,6.3,49.9z"/>
		<path class="st0" d="M0.8,45.4l0.2-0.8L7,45.8l0.6-3l0.8,0.2l-0.8,3.8L0.8,45.4z"/>
		<path class="st0" d="M8.7,40.7c-0.5,0.4-1,0.7-1.7,0.8c-0.6,0.1-1.3,0.1-1.9-0.1c-0.6-0.2-1.2-0.6-1.6-1c-0.4-0.5-0.7-1-0.9-1.7
			c-0.1-0.6-0.1-1.3,0.1-1.9c0.2-0.6,0.6-1.2,1.1-1.6c0.5-0.4,1-0.7,1.7-0.8c0.6-0.1,1.3-0.1,1.9,0.1c0.6,0.2,1.2,0.6,1.6,1
			c0.4,0.5,0.7,1,0.8,1.7c0.1,0.6,0.1,1.3-0.1,1.9C9.5,39.8,9.2,40.3,8.7,40.7z M9.1,37.4C9,37,8.8,36.5,8.4,36.2
			c-0.3-0.4-0.8-0.6-1.3-0.8c-0.5-0.2-1-0.2-1.5-0.1c-0.5,0.1-0.9,0.3-1.3,0.6c-0.4,0.3-0.6,0.7-0.8,1.2c-0.2,0.5-0.2,1-0.1,1.4
			c0.1,0.5,0.3,0.9,0.7,1.3s0.8,0.7,1.3,0.8s1,0.2,1.5,0.1c0.5-0.1,0.9-0.3,1.3-0.6c0.4-0.3,0.6-0.7,0.8-1.2
			C9.1,38.4,9.2,37.9,9.1,37.4z"/>
		<path class="st0" d="M4.9,31.6L6,29.5c0.2-0.3,0.4-0.6,0.7-0.8c0.3-0.2,0.7-0.3,1-0.4c0.4,0,0.7,0,1.1,0.2
			c0.3,0.1,0.5,0.4,0.7,0.6c0.2,0.3,0.3,0.5,0.4,0.9c0.1,0.3,0,0.6,0,0.9l0,0l3.5-0.5l0,0L13,31.3l-3.4,0.4l-0.5,1l2.6,1.3l-0.4,0.7
			L4.9,31.6z M9,31c0.1-0.2,0.2-0.4,0.2-0.7c0-0.2-0.1-0.5-0.2-0.7c-0.1-0.2-0.3-0.4-0.5-0.5c-0.2-0.1-0.4-0.1-0.6-0.1
			c-0.2,0-0.4,0.1-0.6,0.2c-0.2,0.1-0.4,0.3-0.5,0.5L6,31.2l2.3,1.2L9,31z"/>
		<path class="st0" d="M13.8,29.3c-0.5,0.2-1.1,0.2-1.7,0l0.2-0.8c0.4,0.1,0.8,0.2,1.2,0.1c0.4-0.1,0.7-0.3,0.9-0.7
			c0.2-0.3,0.3-0.7,0.3-1c0-0.4-0.2-0.6-0.5-0.8c-0.3-0.2-0.6-0.2-0.9-0.1c-0.3,0.1-0.7,0.3-1.1,0.7l-0.4,0.3
			c-0.4,0.3-0.8,0.5-1.3,0.6c-0.4,0.1-0.8,0-1.3-0.3c-0.3-0.2-0.5-0.4-0.6-0.7c-0.1-0.3-0.2-0.7-0.1-1c0-0.4,0.2-0.7,0.4-1.1
			c0.2-0.3,0.5-0.6,0.8-0.8c0.3-0.2,0.6-0.3,0.9-0.3c0.3,0,0.5,0,0.7,0l-0.2,0.8c-0.2-0.1-0.5-0.1-0.8,0c-0.3,0.1-0.5,0.3-0.8,0.6
			c-0.2,0.3-0.3,0.6-0.3,0.9c0,0.3,0.2,0.6,0.4,0.7c0.2,0.2,0.5,0.2,0.7,0.1c0.3-0.1,0.6-0.3,0.9-0.6l0.4-0.3c0.5-0.4,1-0.6,1.4-0.7
			c0.5-0.1,0.9,0,1.4,0.3c0.4,0.2,0.6,0.6,0.8,0.9c0.1,0.4,0.2,0.7,0.1,1.1c-0.1,0.4-0.2,0.7-0.4,1C14.7,28.7,14.3,29.1,13.8,29.3z"
			/>
		<path class="st0" d="M16.7,19.4l2.2-2.2l0.5,0.5l-2.2,2.2L16.7,19.4z"/>
	</g>
</g>
</svg>
