<?xml version="1.0" encoding="utf-8"?>
<!-- Generator: Adobe Illustrator 23.0.3, SVG Export Plug-In . SVG Version: 6.00 Build 0)  -->
<svg version="1.1" id="Layer_1" xmlns="http://www.w3.org/2000/svg" xmlns:xlink="http://www.w3.org/1999/xlink" x="0px" y="0px"
	 viewBox="0 0 195.4 194.9" style="enable-background:new 0 0 195.4 194.9;" xml:space="preserve">
<style type="text/css">
	.st0{fill:#2D2D2D;}
</style>
<g>
	<path class="st0" d="M98,132.6c2.1-2.8,3.5-5.1,5.4-7.1c2.1-2.3,2.2-4.5,1.1-7.2c-3.2-7.9-1-6.6-9.4-6.7c-4.9-0.1-9.9,0.1-14.8-0.1
		c-2.2-0.1-3.2,0.9-4.2,2.8c-3,5.4-2.6,9.8,2.6,13.6c1.5,1.1,2.6,2.7,4.3,4.6c-7.6,0-14.5,0-22.3,0c1.9-2.2,3.6-4,4.9-6
		c2.1-3.1,4.4-6.2,5.8-9.6C76.4,104.3,81,91.5,86,78.9c1.3-3.4,1.5-6.2-0.8-9.2c-1.5-2-2.5-4.3-4.2-7.4c4.9,0,9.1,0,13.3,0
		c9.7,0,9.7,0,13.2,8.9c5.7,14.7,11.1,29.5,17,44.1c1.9,4.7,5,9,7.5,13.4c0.7,1.2,1.5,2.2,2.7,3.8C122.4,132.6,110.6,132.6,98,132.6
		z M100.7,108.2c-3.6-10.1-7.1-19.7-10.9-30.3c-4,10.6-7.6,20.3-11.4,30.3C86,108.2,93.1,108.2,100.7,108.2z"/>
	<g>
		<path class="st0" d="M43.3,16.2l1.4-0.9l11,7.9l-1.4,0.9l-3-2.2l-4.6,3l0.9,3.6l-1.4,0.9L43.3,16.2z M50.1,21l-3.9-2.9L45,17.3
			l-0.1,0l0.3,1.4l1.1,4.7L50.1,21z"/>
		<path class="st0" d="M51.2,11.4l1.3-0.7l5,10l5-2.5l0.6,1.3l-6.3,3.2L51.2,11.4z"/>
		<path class="st0" d="M61.9,8l-3.3,1.3L58,8l8-3.1l0.5,1.3l-3.3,1.3l4.1,10.4L66,18.5L61.9,8z"/>
		<path class="st0" d="M71.2,3.3l1.6-0.4l8,11l-1.6,0.4l-2.1-3l-5.3,1.4l-0.3,3.7l-1.6,0.4L71.2,3.3z M76.2,10l-2.8-4l-0.9-1.2
			l-0.1,0l-0.1,1.4L72,11.1L76.2,10z"/>
		<path class="st0" d="M80.1,1.3L81.5,1l2.2,12.5l-1.5,0.3L80.1,1.3z"/>
		<path class="st0" d="M85.1,0.4L89.4,0c0.7-0.1,1.4,0,2,0.3C92,0.6,92.5,1,92.9,1.5c0.4,0.5,0.6,1.2,0.7,1.9c0.1,0.6,0,1.1-0.2,1.7
			c-0.2,0.5-0.5,1-1,1.4c-0.4,0.4-0.9,0.7-1.5,0.8l0,0.1l4,4.8l0,0.1l-1.8,0.2l-3.9-4.8l-2,0.2l0.5,5.1L86.3,13L85.1,0.4z M89.8,6.1
			c0.4,0,0.8-0.2,1.2-0.4c0.4-0.2,0.6-0.5,0.8-0.9c0.2-0.4,0.3-0.8,0.2-1.2c0-0.4-0.2-0.7-0.4-1.1c-0.2-0.3-0.5-0.6-0.9-0.8
			c-0.4-0.2-0.8-0.3-1.3-0.2l-2.8,0.3l0.4,4.6L89.8,6.1z"/>
		<path class="st0" d="M95.9,13.8l0.9-1.5c-0.2,0-0.4-0.1-0.6-0.3c-0.2-0.2-0.3-0.4-0.3-0.7c0-0.3,0.1-0.6,0.3-0.8s0.5-0.3,0.8-0.3
			c0.3,0,0.6,0.1,0.8,0.3c0.2,0.2,0.3,0.5,0.3,0.8c0,0.2,0,0.4-0.1,0.6c-0.1,0.2-0.2,0.4-0.4,0.6l-1.1,1.8L95.9,13.8z"/>
		<path class="st0" d="M113.5,0.9l1.7,0.3l2.6,13.3l-1.6-0.3l-0.7-3.6l-5.4-0.9l-1.8,3.2l-1.6-0.3L113.5,0.9z M115.2,9.1l-0.9-4.8
			L114,2.9l-0.1,0l-0.7,1.3l-2.4,4.2L115.2,9.1z"/>
		<path class="st0" d="M122.8,2.8l1.8,0.6l3,11.5l0.1,0l0.7-2.3l2.3-7.3l1.4,0.5l-3.9,12.1l-1.5-0.5l-3.1-12.1l-0.1,0l-0.7,2.3
			l-2.5,7.7l-1.4-0.5L122.8,2.8z"/>
		<path class="st0" d="M144,11.3l6.3,3.7l-0.7,1.2l-5-2.9l-2.1,3.6l4.5,2.7l-0.7,1.2l-4.5-2.7l-2.1,3.6l5,2.9l-0.7,1.2l-6.3-3.7
			L144,11.3z"/>
		<path class="st0" d="M153.1,16.9l1.2,0.9l-6.7,9l4.5,3.3l-0.9,1.2l-5.7-4.2L153.1,16.9z"/>
		<path class="st0" d="M161.1,23l5.4,4.9l-1,1.1l-4.3-3.9l-2.8,3.1l3.9,3.6l-1,1l-3.9-3.6l-2.8,3.1l4.3,3.9l-1,1.1l-5.4-4.9
			L161.1,23z"/>
		<path class="st0" d="M161.3,40.1c-0.2-1.1-0.1-2.3,0.3-3.4s1.1-2,2-2.8s2-1.3,3.1-1.5c1.2-0.2,2.3-0.1,3.4,0.3
			c1.1,0.4,2,1.1,2.8,2c0.6,0.7,1,1.5,1.3,2.3c0.3,0.8,0.3,1.7,0.2,2.4l-1.5-0.1c0.1-0.6,0.1-1.3-0.1-1.9c-0.2-0.6-0.5-1.3-1-1.8
			c-0.6-0.7-1.3-1.2-2.1-1.5c-0.8-0.3-1.7-0.4-2.6-0.3c-0.9,0.1-1.7,0.5-2.5,1.2c-0.8,0.7-1.3,1.4-1.6,2.3c-0.3,0.9-0.4,1.7-0.2,2.6
			c0.2,0.9,0.5,1.6,1.1,2.3c0.5,0.7,1.1,1.1,1.7,1.4c0.6,0.3,1.2,0.4,1.8,0.5c0.4,0,0.9,0,1.4-0.2c0.5-0.2,0.9-0.4,1.4-0.7l-3-3.6
			l1.1-0.9l3.9,4.7c-0.2,0.3-0.4,0.5-0.6,0.7c-0.6,0.5-1.3,0.9-2,1.2c-0.7,0.3-1.5,0.4-2.2,0.3c-1.7-0.1-3.2-0.9-4.4-2.4
			C162,42.2,161.5,41.2,161.3,40.1z"/>
		<path class="st0" d="M180.5,45.6l0.9,1.4l-8.3,10.7l-0.9-1.4l2.3-2.9l-2.9-4.7l-3.6,0.7l-0.9-1.4L180.5,45.6z M175.5,52.3l3-3.8
			l0.9-1.1l0-0.1l-1.4,0.3l-4.8,1L175.5,52.3z"/>
		<path class="st0" d="M185.2,53.8l0.7,1.7l-6.7,9.8l0,0.1l2.2-1l7-3.1l0.6,1.4l-11.6,5.1l-0.6-1.4l7-10.3l0-0.1l-2.2,1l-7.4,3.2
			l-0.6-1.4L185.2,53.8z"/>
		<path class="st0" d="M189.7,69.5l-1-3.4l1.4-0.4l2.4,8.2l-1.4,0.4l-1-3.4L179.4,74l-0.4-1.4L189.7,69.5z"/>
		<path class="st0" d="M182.8,88.9c0.5-1,1.2-1.9,2.2-2.5c1-0.6,2.1-1,3.3-1.1c1.2-0.1,2.4,0.1,3.4,0.6c1,0.5,1.9,1.2,2.5,2.2
			c0.6,1,1,2.1,1.1,3.3c0.1,0.9-0.1,1.8-0.4,2.6c-0.3,0.8-0.8,1.5-1.4,2.1l-1.1-1c0.5-0.5,0.9-1.1,1.2-1.7c0.2-0.6,0.3-1.3,0.3-2
			c-0.1-0.9-0.3-1.7-0.8-2.5c-0.5-0.7-1.1-1.3-1.9-1.7c-0.8-0.4-1.7-0.6-2.8-0.5c-1,0.1-1.9,0.4-2.7,0.9c-0.8,0.5-1.3,1.2-1.7,1.9
			c-0.4,0.8-0.5,1.6-0.5,2.6c0.1,1.5,0.8,2.8,2.1,3.8l-1,1.2c-0.7-0.5-1.3-1.2-1.8-2.1c-0.5-0.8-0.7-1.8-0.8-2.8
			C182.1,91.1,182.3,90,182.8,88.9z"/>
		<path class="st0" d="M182.9,101.1c0.5-0.7,1.1-1.2,1.9-1.5c0.8-0.3,1.6-0.5,2.6-0.4l8,0.6l-0.1,1.5l-8-0.6c-1-0.1-1.9,0.1-2.6,0.6
			c-0.7,0.5-1.1,1.2-1.1,2.3c-0.1,1,0.2,1.8,0.8,2.4c0.6,0.6,1.4,0.9,2.4,1l8,0.6l-0.1,1.5l-8-0.6c-1-0.1-1.8-0.3-2.6-0.7
			c-0.7-0.4-1.3-1-1.6-1.7c-0.4-0.7-0.5-1.6-0.4-2.5C182.1,102.5,182.4,101.7,182.9,101.1z"/>
		<path class="st0" d="M182.1,111.1c0.7-0.7,1.7-1.1,2.8-1.2l0.3,1.5c-0.8,0.1-1.5,0.3-2,0.7c-0.6,0.4-0.9,1-1.1,1.7
			c-0.1,0.7-0.1,1.4,0.2,1.9c0.3,0.6,0.8,0.9,1.4,1.1c0.6,0.1,1.1,0,1.6-0.4c0.5-0.3,0.9-1,1.5-1.9l0.4-0.7c0.5-0.8,1-1.5,1.7-1.9
			c0.6-0.5,1.4-0.6,2.3-0.4c0.6,0.1,1.1,0.4,1.5,0.8c0.4,0.4,0.8,1,0.9,1.6c0.2,0.6,0.2,1.3,0.1,2c-0.1,0.7-0.4,1.3-0.8,1.8
			c-0.4,0.5-0.8,0.8-1.2,1.1c-0.4,0.2-0.9,0.4-1.3,0.4l-0.3-1.5c0.5,0,0.9-0.2,1.3-0.6s0.7-0.8,0.8-1.5c0.1-0.6,0.1-1.2-0.2-1.7
			c-0.3-0.5-0.7-0.8-1.2-0.9c-0.5-0.1-0.9,0-1.3,0.3s-0.8,0.8-1.2,1.6l-0.4,0.8c-0.6,1-1.2,1.7-1.9,2.2c-0.7,0.5-1.5,0.6-2.5,0.4
			c-0.8-0.2-1.4-0.5-1.9-1c-0.5-0.5-0.8-1.1-0.9-1.8c-0.1-0.7-0.1-1.3,0-2C180.9,112.6,181.4,111.8,182.1,111.1z"/>
		<path class="st0" d="M189.7,125.2l1.1-3.4l1.4,0.4l-2.6,8.2l-1.4-0.4l1.1-3.4l-10.7-3.3l0.4-1.4L189.7,125.2z"/>
		<path class="st0" d="M176.7,130.2c1-0.6,2-1,3.2-1.1c1.2-0.1,2.3,0.1,3.4,0.6c1.1,0.5,2,1.2,2.7,2.2c0.7,0.9,1.1,2,1.2,3.1
			c0.1,1.1-0.1,2.3-0.6,3.4c-0.5,1.1-1.2,2-2.2,2.6c-1,0.6-2,1-3.2,1.1s-2.3-0.1-3.4-0.6c-1.1-0.5-2-1.2-2.7-2.2s-1.1-2-1.2-3.1
			c-0.1-1.2,0.1-2.3,0.6-3.4C175,131.7,175.7,130.8,176.7,130.2z M175.3,135.9c0.1,0.9,0.4,1.7,0.9,2.4c0.5,0.7,1.2,1.3,2.2,1.7
			c0.9,0.4,1.8,0.6,2.7,0.5c0.9-0.1,1.7-0.4,2.4-0.9c0.7-0.5,1.3-1.2,1.7-2c0.4-0.8,0.5-1.7,0.4-2.5c-0.1-0.9-0.4-1.7-0.9-2.4
			c-0.5-0.7-1.2-1.3-2.1-1.7c-0.9-0.4-1.8-0.6-2.7-0.5c-0.9,0.1-1.7,0.4-2.4,0.9c-0.7,0.5-1.3,1.2-1.7,2S175.3,135.1,175.3,135.9z"
			/>
		<path class="st0" d="M181.6,147.5l-1.2,1.8l-10.8-2.6l0,0.1l6.2,9.2l-1.2,1.8l-10.4-7.2l0.8-1.2l6.6,4.6l1.9,1.4l0-0.1l-6.2-9.3
			l0.7-1l10.9,2.5l0-0.1l-2-1.3l-6.6-4.6l0.8-1.2L181.6,147.5z"/>
		<path class="st0" d="M171.8,160.6l-1,1.1l-9.6-8.3l1-1.1L171.8,160.6z"/>
		<path class="st0" d="M161.2,156l1.9,11.7l4.7-4.6l1,1l-5.9,5.8l-1.1-1.1l-1.9-11.7L155,162l-1-1l6.2-6L161.2,156z"/>
		<path class="st0" d="M157.3,174.4l-1.4,1l-11.5-7.2l1.3-1l3.1,2l4.3-3.3l-1.1-3.5l1.3-1L157.3,174.4z M150.2,170.1l4.1,2.6
			l1.2,0.8l0.1,0l-0.4-1.4l-1.4-4.6L150.2,170.1z"/>
		<path class="st0" d="M149.7,179.9l-3.9,2.3c-0.6,0.3-1.1,0.5-1.8,0.5c-0.6,0-1.2-0.1-1.8-0.4c-0.5-0.3-1-0.7-1.3-1.3
			c-0.3-0.5-0.4-1.1-0.4-1.6c0-0.6,0.2-1.1,0.6-1.5l0-0.1c-0.7,0.1-1.3,0.1-1.9-0.2c-0.6-0.3-1.1-0.7-1.4-1.3
			c-0.3-0.6-0.5-1.2-0.5-1.9c0-0.6,0.2-1.3,0.6-1.8c0.4-0.6,0.8-1,1.4-1.3l4.2-2.4L149.7,179.9z M139.8,172.6
			c-0.4,0.2-0.6,0.5-0.8,0.8s-0.3,0.7-0.3,1.1s0.1,0.7,0.3,1c0.2,0.3,0.4,0.6,0.8,0.8c0.3,0.2,0.7,0.3,1.1,0.3
			c0.4,0,0.8-0.1,1.2-0.3l2.9-1.7l-2.2-3.8L139.8,172.6z M143,177.4c-0.4,0.2-0.6,0.5-0.8,0.8c-0.2,0.3-0.3,0.7-0.3,1
			c0,0.4,0.1,0.7,0.3,1c0.2,0.3,0.4,0.5,0.7,0.7c0.3,0.2,0.6,0.3,1,0.3c0.4,0,0.7-0.1,1.1-0.3l2.7-1.6l-2-3.5L143,177.4z"/>
		<path class="st0" d="M139.3,185.5l-1.4,0.6l-4.5-10.3l-5.1,2.2l-0.6-1.3l6.5-2.8L139.3,185.5z"/>
		<path class="st0" d="M130,189.4l-7,2.2l-0.4-1.4l5.6-1.7l-1.2-4l-5,1.6l-0.4-1.4l5-1.6l-1.2-4l-5.6,1.7l-0.4-1.4l7-2.2L130,189.4z
			"/>
		<path class="st0" d="M107.6,194.3l-1.7,0.2l-5.9-12.2l1.6-0.2l1.6,3.4l5.4-0.5l0.9-3.6l1.6-0.1L107.6,194.3z M103.8,186.9l2.1,4.4
			l0.6,1.3l0.1,0l0.4-1.4l1.3-4.7L103.8,186.9z"/>
		<path class="st0" d="M98.1,194.9l-1.8-0.1l-5.9-10.4l-0.1,0l0,2.4l-0.3,7.6l-1.5-0.1l0.6-12.6l1.6,0.1l6.2,10.8l0.1,0l0-2.4
			l0.4-8.1l1.5,0.1L98.1,194.9z"/>
		<path class="st0" d="M84.2,194l-3.8-0.7c-1.3-0.2-2.3-0.7-3.2-1.4c-0.8-0.7-1.4-1.6-1.8-2.6c-0.3-1-0.4-2.2-0.2-3.4
			c0.2-1.2,0.7-2.2,1.4-3.1c0.7-0.8,1.6-1.4,2.6-1.8c1-0.3,2.2-0.4,3.5-0.2l3.8,0.7L84.2,194z M82.6,182.2c-1.5-0.3-2.7-0.1-3.7,0.6
			c-1,0.7-1.7,1.8-2,3.3c-0.3,1.5-0.1,2.8,0.6,3.8c0.7,1,1.8,1.7,3.3,1.9l2.3,0.4l1.8-9.6L82.6,182.2z"/>
		<path class="st0" d="M62.1,188.2l-1.4-0.6l2.2-5l-6-2.7l-2.2,5l-1.4-0.6l5.2-11.5l1.4,0.6l-2.4,5.3l6,2.7l2.4-5.3l1.4,0.6
			L62.1,188.2z"/>
		<path class="st0" d="M46.7,180.4l-1.4-0.9l2.6-13.3l1.4,0.9l-0.8,3.6l4.6,2.9l2.9-2.3l1.4,0.9L46.7,180.4z M48.2,172.2l-1,4.8
			l-0.3,1.4l0.1,0l1.1-0.9l3.8-3L48.2,172.2z"/>
		<path class="st0" d="M45.9,165.3c0.3,1,0.2,2-0.3,3l-1.5-0.5c0.3-0.7,0.4-1.4,0.3-2.1s-0.5-1.3-1-1.8c-0.6-0.5-1.2-0.7-1.8-0.7
			c-0.6,0-1.2,0.2-1.6,0.8c-0.4,0.5-0.5,1-0.4,1.5c0.1,0.6,0.4,1.3,1,2.2l0.4,0.7c0.5,0.8,0.8,1.6,0.9,2.4c0.1,0.8-0.1,1.5-0.7,2.2
			c-0.4,0.5-0.9,0.8-1.4,1c-0.6,0.2-1.2,0.2-1.8,0.1c-0.7-0.1-1.3-0.4-1.8-0.9c-0.6-0.5-1-1-1.2-1.5c-0.2-0.6-0.4-1.1-0.4-1.6
			c0-0.5,0.1-0.9,0.2-1.3l1.5,0.4c-0.2,0.4-0.2,0.9-0.1,1.4c0.1,0.5,0.4,1,0.9,1.5c0.5,0.4,1,0.6,1.6,0.6c0.6,0,1.1-0.2,1.4-0.6
			c0.3-0.4,0.4-0.8,0.3-1.3c-0.1-0.5-0.4-1.1-0.8-1.8l-0.5-0.7c-0.6-1-0.9-1.9-1-2.7c-0.1-0.8,0.2-1.6,0.8-2.4
			c0.5-0.6,1.1-1,1.8-1.2c0.7-0.2,1.3-0.1,2,0.1c0.7,0.2,1.2,0.5,1.8,0.9C45.1,163.5,45.6,164.4,45.9,165.3z"/>
		<path class="st0" d="M25.4,163l-1.1-1.3l5.1-8.2l0.7-1.1l0-0.1l-1.3,0.5l-9.2,3.3l-1.1-1.3l12.7-4.4l1,1.2L25.4,163z"/>
		<path class="st0" d="M17.4,152.6l-0.8-1.2l10.5-7.1l0.8,1.2L17.4,152.6z"/>
		<path class="st0" d="M15.2,149.6l-0.8-1.4l6.5-7.2l0.9-1l0-0.1l-1.3,0.2l-9.6,1.6l-0.8-1.4l13.3-2.2l0.8,1.4L15.2,149.6z"/>
		<path class="st0" d="M9,138l-0.6-1.4l11.5-5.2l0.6,1.4L9,138z"/>
		<path class="st0" d="M6.9,133.2l-1.2-3.6c-0.4-1.2-0.5-2.4-0.3-3.5c0.2-1.1,0.7-2,1.4-2.8c0.7-0.8,1.7-1.4,2.9-1.8
			c1.2-0.4,2.3-0.5,3.4-0.3c1.1,0.2,2,0.6,2.8,1.4c0.8,0.7,1.4,1.7,1.9,3l1.2,3.6L6.9,133.2z M16.3,126c-0.5-1.4-1.3-2.4-2.4-3
			c-1.1-0.6-2.4-0.6-3.8-0.1c-1.5,0.5-2.5,1.3-3,2.4c-0.5,1.1-0.6,2.4-0.1,3.8l0.8,2.2l9.3-3.2L16.3,126z"/>
		<path class="st0" d="M12.8,107.8c-0.5,1.1-1.2,1.9-2.1,2.6c-1,0.7-2,1.1-3.3,1.2C6.2,111.6,5,111.5,4,111
			c-1.1-0.5-1.9-1.2-2.6-2.1c-0.7-0.9-1.1-2-1.2-3.2c-0.1-0.9,0-1.8,0.3-2.6c0.3-0.8,0.7-1.5,1.3-2.2l1.1,1
			c-0.5,0.5-0.9,1.1-1.1,1.7c-0.2,0.6-0.3,1.3-0.2,2c0.1,0.9,0.4,1.7,0.9,2.5c0.5,0.7,1.2,1.3,2,1.7c0.8,0.4,1.7,0.5,2.8,0.4
			c1-0.1,1.9-0.4,2.6-0.9c0.7-0.5,1.3-1.2,1.6-2c0.4-0.8,0.5-1.7,0.4-2.6c-0.1-1.5-0.9-2.8-2.2-3.7l1-1.2c0.7,0.5,1.4,1.2,1.8,2
			s0.8,1.7,0.9,2.8C13.5,105.6,13.3,106.7,12.8,107.8z"/>
		<path class="st0" d="M12.1,95.4c-0.6,1-1.5,1.7-2.5,2.2c-1,0.5-2.2,0.7-3.4,0.6c-1.2-0.1-2.3-0.4-3.3-1c-1-0.6-1.7-1.4-2.3-2.5
			c-0.5-1-0.8-2.1-0.7-3.4c0.1-1.2,0.4-2.3,1.1-3.2c0.6-1,1.5-1.7,2.5-2.2c1-0.5,2.2-0.7,3.4-0.7c1.2,0.1,2.3,0.4,3.3,1
			s1.7,1.5,2.3,2.5c0.5,1,0.8,2.1,0.7,3.4C13.1,93.4,12.8,94.5,12.1,95.4z M11.3,89.5c-0.4-0.8-1-1.4-1.7-1.9
			c-0.8-0.5-1.6-0.8-2.6-0.8c-1-0.1-1.9,0.1-2.7,0.5c-0.8,0.4-1.5,1-1.9,1.7c-0.5,0.7-0.8,1.6-0.8,2.5C1.4,92.4,1.6,93.2,2,94
			c0.4,0.8,1,1.4,1.7,1.9c0.8,0.5,1.6,0.8,2.6,0.8c1,0.1,1.9-0.1,2.7-0.5c0.8-0.4,1.5-1,2-1.7c0.5-0.7,0.8-1.5,0.8-2.4
			C11.8,91.2,11.7,90.3,11.3,89.5z"/>
		<path class="st0" d="M1.3,81.4L1.6,80l11,2.2l1.1-5.4l1.4,0.3l-1.3,6.9L1.3,81.4z"/>
		<path class="st0" d="M15.6,73.1c-0.9,0.8-1.9,1.2-3,1.4c-1.1,0.2-2.3,0.1-3.4-0.3c-1.1-0.4-2.1-1-2.9-1.9c-0.8-0.9-1.3-1.9-1.5-3
			c-0.2-1.1-0.2-2.3,0.2-3.4c0.4-1.2,1-2.1,1.9-2.9c0.9-0.8,1.9-1.2,3-1.5c1.1-0.2,2.3-0.1,3.4,0.2c1.2,0.4,2.1,1,2.9,1.9
			c0.8,0.9,1.3,1.9,1.5,3c0.2,1.1,0.2,2.3-0.2,3.4C17.1,71.4,16.5,72.3,15.6,73.1z M16.3,67.2c-0.2-0.9-0.6-1.6-1.2-2.3
			c-0.6-0.7-1.4-1.2-2.3-1.5c-0.9-0.3-1.9-0.4-2.7-0.2c-0.9,0.2-1.7,0.5-2.3,1.1c-0.7,0.6-1.1,1.3-1.4,2.2C6,67.3,6,68.2,6.1,69
			c0.2,0.9,0.6,1.6,1.2,2.3c0.6,0.7,1.4,1.2,2.3,1.5c0.9,0.3,1.9,0.4,2.7,0.2c0.9-0.2,1.7-0.5,2.3-1.1c0.7-0.6,1.1-1.3,1.4-2.2
			C16.4,68.9,16.5,68,16.3,67.2z"/>
		<path class="st0" d="M8.8,56.7l1.9-3.8c0.3-0.6,0.7-1.1,1.3-1.5c0.6-0.4,1.2-0.6,1.8-0.7c0.7-0.1,1.3,0.1,2,0.4
			c0.5,0.3,1,0.6,1.3,1.1c0.3,0.5,0.5,1,0.6,1.6c0.1,0.6,0.1,1.1-0.1,1.7l0,0.1l6.2-0.9l0.1,0l-0.8,1.6l-6.2,0.8l-0.9,1.8l4.6,2.3
			l-0.7,1.3L8.8,56.7z M16.2,55.7c0.2-0.4,0.3-0.8,0.3-1.2c0-0.4-0.1-0.8-0.3-1.2c-0.2-0.4-0.5-0.7-0.9-0.9
			c-0.3-0.2-0.7-0.3-1.1-0.2c-0.4,0-0.8,0.1-1.2,0.4c-0.4,0.2-0.6,0.5-0.9,1L10.8,56l4.2,2.1L16.2,55.7z"/>
		<path class="st0" d="M24.7,52.5c-1,0.4-2,0.4-3,0L22,51c0.7,0.2,1.5,0.3,2.2,0.1c0.7-0.2,1.3-0.6,1.7-1.2c0.4-0.6,0.6-1.2,0.5-1.9
			c-0.1-0.6-0.4-1.1-0.9-1.5c-0.5-0.3-1-0.4-1.6-0.3c-0.6,0.1-1.2,0.5-2.1,1.2l-0.7,0.5c-0.8,0.6-1.5,1-2.3,1.1
			c-0.7,0.2-1.5,0-2.3-0.5c-0.5-0.3-0.9-0.8-1.1-1.3c-0.2-0.6-0.3-1.2-0.3-1.8c0.1-0.7,0.3-1.3,0.7-1.9c0.4-0.6,0.9-1.1,1.4-1.4
			c0.5-0.3,1-0.5,1.5-0.5c0.5-0.1,0.9,0,1.3,0.1l-0.3,1.5c-0.4-0.1-0.9-0.1-1.4,0c-0.5,0.2-1,0.5-1.4,1.1c-0.4,0.5-0.5,1.1-0.5,1.7
			c0.1,0.6,0.3,1,0.8,1.3c0.4,0.3,0.9,0.3,1.3,0.2c0.5-0.2,1-0.5,1.7-1l0.7-0.5c0.9-0.7,1.8-1.1,2.6-1.3c0.8-0.2,1.6,0,2.5,0.6
			c0.7,0.4,1.1,1,1.4,1.7c0.2,0.7,0.3,1.3,0.1,2s-0.4,1.3-0.8,1.9C26.4,51.5,25.7,52.1,24.7,52.5z"/>
		<path class="st0" d="M30,34.7l3.9-4l0.9,0.9l-3.9,4L30,34.7z"/>
	</g>
</g>
</svg>
