<?xml version="1.0" encoding="utf-8"?>
<!-- Generator: Adobe Illustrator 23.0.0, SVG Export Plug-In . SVG Version: 6.00 Build 0)  -->
<svg version="1.1" id="Layer_1" xmlns="http://www.w3.org/2000/svg" xmlns:xlink="http://www.w3.org/1999/xlink" x="0px" y="0px"
	 viewBox="0 0 110.9 144.7" style="enable-background:new 0 0 110.9 144.7;" xml:space="preserve">
<style type="text/css">
	.st0{fill:url(#SVGID_1_);}
	.st1{fill:url(#SVGID_2_);}
	.st2{fill:url(#SVGID_3_);}
</style>
<g>
	<linearGradient id="SVGID_1_" gradientUnits="userSpaceOnUse" x1="85.2093" y1="128.5222" x2="-8.4314" y2="5.8777">
		<stop  offset="0" style="stop-color:#86D3E8"/>
		<stop  offset="0.1223" style="stop-color:#70CBE7"/>
		<stop  offset="0.3754" style="stop-color:#38B6E3"/>
		<stop  offset="0.5168" style="stop-color:#16A9E1"/>
		<stop  offset="0.9657" style="stop-color:#9A5BA3"/>
	</linearGradient>
	<path class="st0" d="M35.4,99.8c7.1-7.1,33.1-7.1,40.2,0c0.2,0.2,0.5,0.5,0.7,0.7c11.6-4.3,22.1-10.7,30.7-17.2
		C98.7,48.9,79.7,9.9,71.1,3.5C68,1.2,61.7,0,55.5,0c-6.3,0-12.5,1.2-15.7,3.5C26.9,13.2-10.1,97.3,2.6,127.8
		c7.2-4.9,16.4-10.3,27.3-14.7C30.7,107.4,32.5,102.6,35.4,99.8z"/>
	<g>
		<linearGradient id="SVGID_2_" gradientUnits="userSpaceOnUse" x1="2.5459" y1="110.5131" x2="76.1687" y2="170.75">
			<stop  offset="0.1248" style="stop-color:#EF64A4"/>
			<stop  offset="0.4487" style="stop-color:#16A9E1"/>
			<stop  offset="0.8078" style="stop-color:#86D3E8"/>
		</linearGradient>
		<path class="st1" d="M29.9,113.2c-10.9,4.4-20.1,9.8-27.3,14.7c0.2,0.5,0.4,0.9,0.6,1.4c3.6,7.3,16.1,12.5,28.6,15.5
			C29.4,133.7,28.6,122.1,29.9,113.2z"/>
		<linearGradient id="SVGID_3_" gradientUnits="userSpaceOnUse" x1="65.4038" y1="91.4318" x2="159.9631" y2="168.7985">
			<stop  offset="0.1248" style="stop-color:#EF64A4"/>
			<stop  offset="0.4487" style="stop-color:#16A9E1"/>
			<stop  offset="0.8078" style="stop-color:#86D3E8"/>
		</linearGradient>
		<path class="st2" d="M107,83.4c-8.7,6.5-19.1,12.9-30.7,17.2c6.6,7.7,6.7,26.6,2.8,44.1c12.5-3,25-8.2,28.6-15.5
			C112.7,119,111.4,101.8,107,83.4z"/>
	</g>
</g>
</svg>
